<?xml version="1.0" encoding="UTF-8" standalone="no"?>
<!-- Generator: Gravit.io -->
<svg xmlns="http://www.w3.org/2000/svg" xmlns:xlink="http://www.w3.org/1999/xlink" style="isolation:isolate" viewBox="0 0 640 640" width="640" height="640"><defs><clipPath id="_clipPath_VxuowRMprGAi80p80fl55BWmCXnstXDO"><rect width="640" height="640"/></clipPath></defs><g clip-path="url(#_clipPath_VxuowRMprGAi80p80fl55BWmCXnstXDO)"><g id="Group"><path d=" M 630 103.518 C 630 103.518 630 103.521 630 103.521 L 630 103.511 L 630 103.511 L 630 103.511 L 630 103.518 Z  M 630 103.518 L 630 215.263 L 630 215.263 L 630 444.637 L 630 458.249 C 630.007 464.378 628.777 470.447 626.39 476.093 C 624.087 481.532 620.751 486.478 616.572 490.658 C 612.396 494.837 607.449 498.17 602.007 500.477 C 596.361 502.863 590.292 504.089 584.163 504.086 L 412.485 504.086 L 301.909 504.086 C 299.353 504.096 296.8 504.243 294.263 504.533 C 291.364 504.856 288.481 505.303 285.621 505.873 C 282.538 506.486 279.478 507.209 276.449 508.042 C 273.313 508.906 270.203 509.872 267.13 510.945 C 264.057 512.015 261.021 513.188 258.025 514.462 C 255.132 515.688 252.285 517.021 249.489 518.458 C 246.896 519.787 244.36 521.227 241.887 522.774 C 239.717 524.127 237.627 525.597 235.618 527.177 L 178.262 572.647 C 176.622 573.954 174.925 575.187 173.172 576.337 C 171.539 577.413 169.836 578.39 168.08 579.257 C 167.216 579.676 166.34 580.066 165.447 580.416 C 164.553 580.766 163.644 581.076 162.72 581.336 C 161.76 581.609 160.787 581.823 159.804 581.979 C 158.748 582.146 157.681 582.229 156.611 582.236 C 155.451 582.239 154.295 582.139 153.155 581.93 C 151.895 581.699 150.665 581.33 149.485 580.83 C 146.976 579.756 144.766 578.083 143.053 575.957 C 142.246 574.954 141.553 573.864 140.99 572.707 C 140.477 571.657 140.063 570.561 139.757 569.438 C 139.473 568.408 139.27 567.361 139.143 566.305 C 139.027 565.315 138.97 564.318 138.973 563.322 C 138.977 562.385 139.023 561.452 139.113 560.519 C 139.207 559.586 139.333 558.656 139.5 557.729 C 139.84 555.846 140.297 553.98 140.863 552.15 L 151.478 517.288 C 151.478 517.278 151.482 517.271 151.485 517.264 C 151.732 516.458 151.922 515.635 152.052 514.801 C 152.158 514.105 152.215 513.402 152.215 512.695 C 152.218 512.018 152.155 511.342 152.025 510.675 C 151.918 510.129 151.758 509.595 151.545 509.082 C 151.168 508.179 150.605 507.369 149.895 506.699 C 149.505 506.339 149.082 506.019 148.632 505.743 C 148.086 505.413 147.512 505.139 146.912 504.923 C 146.172 504.653 145.409 504.453 144.636 504.323 C 143.673 504.163 142.703 504.083 141.73 504.086 C 141.72 504.086 141.706 504.086 141.696 504.086 L 141.696 504.086 L 56.184 504.086 C 50.051 504.089 43.982 502.863 38.336 500.477 C 32.894 498.174 27.948 494.841 23.768 490.661 C 19.585 486.485 16.249 481.542 13.94 476.103 C 11.55 470.457 10.317 464.388 10.313 458.259 L 10 104.928 L 10 104.898 C 9.993 98.769 11.22 92.703 13.603 87.06 C 15.906 81.617 19.232 76.675 23.405 72.492 C 27.578 68.309 32.514 64.97 37.95 62.653 C 43.589 60.257 49.652 59.017 55.777 59.007 L 584.153 57.764 L 584.239 57.764 C 584.239 57.764 584.243 57.764 584.243 57.764 C 590.362 57.757 596.421 58.98 602.06 61.36 C 607.493 63.66 612.429 66.986 616.598 71.159 C 620.774 75.328 624.101 80.268 626.401 85.7 C 628.78 91.339 630.007 97.395 630 103.518 Z  M 56.184 504.086 L 56.177 504.086 L 56.177 504.086 L 56.187 504.086 C 56.187 504.086 56.184 504.086 56.184 504.086 Z  M 141.683 479.089 C 141.68 479.089 141.673 479.089 141.666 479.089 L 141.696 479.089 L 141.696 479.089 L 141.683 479.089 L 56.177 479.089 L 56.177 479.089 C 56.174 479.089 56.171 479.089 56.167 479.089 C 53.388 479.093 50.635 478.536 48.075 477.456 C 45.595 476.403 43.339 474.883 41.436 472.977 C 39.53 471.077 38.006 468.824 36.953 466.344 C 35.87 463.785 35.313 461.032 35.31 458.252 C 35.31 458.249 35.31 458.245 35.31 458.242 L 34.997 104.911 L 34.997 104.884 C 34.997 104.884 34.997 104.881 34.997 104.881 C 34.993 102.101 35.55 99.348 36.63 96.789 C 37.68 94.309 39.2 92.053 41.103 90.146 C 43.006 88.237 45.255 86.713 47.735 85.657 C 50.292 84.57 53.045 84.01 55.824 84.004 C 55.827 84.004 55.831 84.004 55.834 84.004 L 584.196 82.761 L 584.266 82.761 C 587.035 82.757 589.775 83.31 592.328 84.384 C 594.795 85.43 597.034 86.943 598.924 88.836 C 600.82 90.73 602.334 92.969 603.377 95.432 C 604.453 97.985 605.007 100.728 605.003 103.501 C 605.003 103.505 605.003 103.508 605.003 103.511 L 605.003 103.511 L 605.003 215.263 L 605.003 215.263 L 605.003 444.637 L 605.003 458.252 C 605.003 458.255 605.003 458.259 605.003 458.262 C 605.007 461.042 604.45 463.791 603.37 466.351 C 602.32 468.831 600.8 471.08 598.897 472.98 C 596.994 474.887 594.745 476.403 592.268 477.456 C 589.708 478.536 586.956 479.093 584.176 479.089 C 584.173 479.089 584.169 479.089 584.166 479.089 L 412.485 479.089 L 301.886 479.089 C 301.872 479.089 301.859 479.089 301.842 479.089 C 298.376 479.103 294.913 479.303 291.47 479.693 C 287.874 480.093 284.295 480.649 280.745 481.356 C 277.072 482.086 273.429 482.949 269.82 483.942 C 266.144 484.952 262.507 486.085 258.908 487.338 C 255.312 488.591 251.756 489.965 248.249 491.454 C 244.803 492.918 241.414 494.507 238.081 496.217 C 234.861 497.867 231.711 499.657 228.642 501.576 C 225.702 503.41 222.863 505.403 220.14 507.549 C 220.13 507.556 220.116 507.566 220.106 507.572 L 167.983 548.897 L 175.389 524.577 C 175.979 522.64 176.435 520.664 176.749 518.661 C 177.055 516.701 177.208 514.725 177.212 512.742 C 177.218 510.459 177.002 508.179 176.569 505.936 C 176.139 503.716 175.485 501.543 174.615 499.457 C 172.876 495.291 170.273 491.541 166.98 488.452 C 165.327 486.908 163.524 485.542 161.59 484.369 C 159.644 483.189 157.584 482.202 155.445 481.426 C 153.272 480.636 151.029 480.049 148.749 479.666 C 146.412 479.279 144.049 479.086 141.683 479.089 Z " fill-rule="evenodd" fill="rgb(255,255,255)"/><path d=" M 116.516 373.662 L 107.897 373.687 L 107.941 388.397 L 116.56 388.372 L 116.56 388.372 Q 119.548 388.363 120.577 386.809 L 120.577 386.809 L 120.577 386.809 Q 121.607 385.254 121.6 382.956 L 121.6 382.956 L 121.589 379.049 L 121.589 379.049 Q 121.582 376.75 120.543 375.202 L 120.543 375.202 L 120.543 375.202 Q 119.504 373.653 116.516 373.662 L 116.516 373.662 Z  M 103.943 435.757 L 103.943 435.757 L 86.245 435.809 L 86.245 435.809 Q 84.061 435.816 83.082 434.842 L 83.082 434.842 L 83.082 434.842 Q 82.102 433.868 82.095 431.684 L 82.095 431.684 L 81.876 357.215 L 81.876 357.215 Q 81.87 355.032 82.844 354.052 L 82.844 354.052 L 82.844 354.052 Q 83.818 353.072 86.001 353.066 L 86.001 353.066 L 124.27 352.953 L 124.27 352.953 Q 137.141 352.915 142.041 358.245 L 142.041 358.245 L 142.041 358.245 Q 146.941 363.574 146.966 372.078 L 146.966 372.078 L 146.982 377.365 L 146.982 377.365 Q 146.996 382.192 145.569 385.586 L 145.569 385.586 L 145.569 385.586 Q 144.143 388.98 140.585 390.485 L 140.585 390.485 L 140.585 390.485 Q 146.793 391.156 150.655 395.512 L 150.655 395.512 L 150.655 395.512 Q 154.518 399.867 154.539 407.108 L 154.539 407.108 L 154.611 431.471 L 154.611 431.471 Q 154.617 433.655 153.643 434.634 L 153.643 434.634 L 153.643 434.634 Q 152.67 435.614 150.486 435.62 L 150.486 435.62 L 132.673 435.673 L 132.673 435.673 Q 130.49 435.679 129.51 434.705 L 129.51 434.705 L 129.51 434.705 Q 128.53 433.731 128.524 431.548 L 128.524 431.548 L 128.472 413.965 L 128.472 413.965 Q 128.465 411.436 127.484 410.233 L 127.484 410.233 L 127.484 410.233 Q 126.504 409.029 124.09 409.036 L 124.09 409.036 L 108.001 409.083 L 108.068 431.608 L 108.068 431.608 Q 108.074 433.791 107.1 434.771 L 107.1 434.771 L 107.1 434.771 Q 106.126 435.751 103.943 435.757 Z  M 224.955 435.401 L 224.955 435.401 L 171.632 435.558 L 171.632 435.558 Q 169.448 435.565 168.468 434.591 L 168.468 434.591 L 168.468 434.591 Q 167.489 433.617 167.482 431.433 L 167.482 431.433 L 167.263 356.964 L 167.263 356.964 Q 167.257 354.78 168.231 353.801 L 168.231 353.801 L 168.231 353.801 Q 169.205 352.821 171.388 352.814 L 171.388 352.814 L 224.712 352.657 L 224.712 352.657 Q 226.895 352.651 227.875 353.625 L 227.875 353.625 L 227.875 353.625 Q 228.855 354.599 228.861 356.783 L 228.861 356.783 L 228.901 370.228 L 228.901 370.228 Q 228.907 372.412 227.933 373.392 L 227.933 373.392 L 227.933 373.392 Q 226.959 374.371 224.776 374.378 L 224.776 374.378 L 193.057 374.471 L 193.083 383.32 L 215.493 383.254 L 215.493 383.254 Q 217.677 383.248 218.656 384.222 L 218.656 384.222 L 218.656 384.222 Q 219.636 385.196 219.642 387.379 L 219.642 387.379 L 219.679 399.676 L 219.679 399.676 Q 219.685 401.859 218.711 402.839 L 218.711 402.839 L 218.711 402.839 Q 217.737 403.819 215.554 403.825 L 215.554 403.825 L 193.144 403.891 L 193.173 413.774 L 224.891 413.681 L 224.891 413.681 Q 227.075 413.675 228.055 414.649 L 228.055 414.649 L 228.055 414.649 Q 229.034 415.622 229.041 417.806 L 229.041 417.806 L 229.08 431.252 L 229.08 431.252 Q 229.087 433.435 228.113 434.415 L 228.113 434.415 L 228.113 434.415 Q 227.139 435.395 224.955 435.401 Z  M 272.475 376.651 L 272.475 376.651 L 267.125 394.135 L 285.168 394.082 L 279.715 376.629 L 279.715 376.629 Q 279.253 375.596 278.734 375.138 L 278.734 375.138 L 278.734 375.138 Q 278.216 374.68 277.526 374.682 L 277.526 374.682 L 274.653 374.691 L 274.653 374.691 Q 273.964 374.693 273.448 375.154 L 273.448 375.154 L 273.448 375.154 Q 272.932 375.615 272.475 376.651 Z  M 266.038 415.054 L 266.085 431.143 L 266.085 431.143 Q 266.092 433.326 265.118 434.306 L 265.118 434.306 L 265.118 434.306 Q 264.144 435.286 261.96 435.292 L 261.96 435.292 L 245.067 435.342 L 245.067 435.342 Q 242.883 435.348 241.903 434.374 L 241.903 434.374 L 241.903 434.374 Q 240.924 433.4 240.917 431.217 L 240.917 431.217 L 240.828 400.878 L 240.828 400.878 Q 240.818 397.43 241.896 392.945 L 241.896 392.945 L 241.896 392.945 Q 242.975 388.46 245.256 382.477 L 245.256 382.477 L 255.177 356.36 L 255.177 356.36 Q 255.861 354.405 257.295 353.481 L 257.295 353.481 L 257.295 353.481 Q 258.729 352.557 261.027 352.551 L 261.027 352.551 L 291.941 352.46 L 291.941 352.46 Q 294.125 352.453 295.564 353.368 L 295.564 353.368 L 295.564 353.368 Q 297.003 354.284 297.698 356.235 L 297.698 356.235 L 307.773 382.293 L 307.773 382.293 Q 310.089 388.262 311.194 392.741 L 311.194 392.741 L 311.194 392.741 Q 312.299 397.22 312.309 400.667 L 312.309 400.667 L 312.399 431.007 L 312.399 431.007 Q 312.405 433.19 311.431 434.17 L 311.431 434.17 L 311.431 434.17 Q 310.457 435.15 308.274 435.156 L 308.274 435.156 L 290.92 435.207 L 290.92 435.207 Q 288.622 435.214 287.527 434.24 L 287.527 434.24 L 287.527 434.24 Q 286.433 433.266 286.426 431.083 L 286.426 431.083 L 286.379 414.994 L 266.038 415.054 Z  M 369.412 434.976 L 369.412 434.976 L 330.683 435.09 L 330.683 435.09 Q 328.5 435.096 327.52 434.122 L 327.52 434.122 L 327.52 434.122 Q 326.54 433.148 326.534 430.965 L 326.534 430.965 L 326.315 356.496 L 326.315 356.496 Q 326.308 354.312 327.282 353.332 L 327.282 353.332 L 327.282 353.332 Q 328.256 352.353 330.44 352.346 L 330.44 352.346 L 369.168 352.232 L 369.168 352.232 Q 383.534 352.19 390.503 357.916 L 390.503 357.916 L 390.503 357.916 Q 397.473 363.641 397.508 375.593 L 397.508 375.593 L 397.614 411.449 L 397.614 411.449 Q 397.649 423.401 390.713 429.167 L 390.713 429.167 L 390.713 429.167 Q 383.777 434.934 369.412 434.976 Z  M 366.13 374.192 L 352.455 374.232 L 352.57 413.305 L 366.245 413.265 L 366.245 413.265 Q 369.003 413.257 370.321 411.874 L 370.321 411.874 L 370.321 411.874 Q 371.638 410.491 371.63 407.618 L 371.63 407.618 L 371.548 379.692 L 371.548 379.692 Q 371.539 376.819 370.214 375.501 L 370.214 375.501 L 370.214 375.501 Q 368.888 374.183 366.13 374.192 L 366.13 374.192 Z  M 469.739 434.681 L 469.739 434.681 L 416.415 434.838 L 416.415 434.838 Q 414.231 434.844 413.252 433.87 L 413.252 433.87 L 413.252 433.87 Q 412.272 432.896 412.266 430.713 L 412.266 430.713 L 412.046 356.243 L 412.046 356.243 Q 412.04 354.06 413.014 353.08 L 413.014 353.08 L 413.014 353.08 Q 413.988 352.1 416.171 352.094 L 416.171 352.094 L 469.495 351.937 L 469.495 351.937 Q 471.679 351.931 472.658 352.905 L 472.658 352.905 L 472.658 352.905 Q 473.638 353.878 473.644 356.062 L 473.644 356.062 L 473.684 369.508 L 473.684 369.508 Q 473.691 371.691 472.717 372.671 L 472.717 372.671 L 472.717 372.671 Q 471.743 373.651 469.559 373.657 L 469.559 373.657 L 437.841 373.751 L 437.867 382.6 L 460.276 382.534 L 460.276 382.534 Q 462.46 382.527 463.44 383.501 L 463.44 383.501 L 463.44 383.501 Q 464.419 384.475 464.426 386.659 L 464.426 386.659 L 464.462 398.955 L 464.462 398.955 Q 464.468 401.139 463.495 402.118 L 463.495 402.118 L 463.495 402.118 Q 462.521 403.098 460.337 403.105 L 460.337 403.105 L 437.927 403.171 L 437.956 413.054 L 469.675 412.96 L 469.675 412.96 Q 471.858 412.954 472.838 413.928 L 472.838 413.928 L 472.838 413.928 Q 473.818 414.902 473.824 417.085 L 473.824 417.085 L 473.864 430.531 L 473.864 430.531 Q 473.87 432.715 472.896 433.695 L 472.896 433.695 L 472.896 433.695 Q 471.922 434.674 469.739 434.681 Z  M 521.845 372.469 L 513.226 372.494 L 513.27 387.204 L 521.889 387.179 L 521.889 387.179 Q 524.877 387.17 525.906 385.616 L 525.906 385.616 L 525.906 385.616 Q 526.936 384.061 526.929 381.763 L 526.929 381.763 L 526.918 377.855 L 526.918 377.855 Q 526.911 375.557 525.872 374.009 L 525.872 374.009 L 525.872 374.009 Q 524.833 372.46 521.845 372.469 L 521.845 372.469 Z  M 509.272 434.564 L 509.272 434.564 L 491.574 434.616 L 491.574 434.616 Q 489.39 434.623 488.411 433.649 L 488.411 433.649 L 488.411 433.649 Q 487.431 432.675 487.424 430.491 L 487.424 430.491 L 487.205 356.022 L 487.205 356.022 Q 487.199 353.839 488.173 352.859 L 488.173 352.859 L 488.173 352.859 Q 489.147 351.879 491.33 351.873 L 491.33 351.873 L 529.599 351.76 L 529.599 351.76 Q 542.47 351.722 547.37 357.052 L 547.37 357.052 L 547.37 357.052 Q 552.27 362.381 552.295 370.885 L 552.295 370.885 L 552.311 376.172 L 552.311 376.172 Q 552.325 380.999 550.898 384.393 L 550.898 384.393 L 550.898 384.393 Q 549.472 387.787 545.914 389.292 L 545.914 389.292 L 545.914 389.292 Q 552.122 389.963 555.984 394.319 L 555.984 394.319 L 555.984 394.319 Q 559.847 398.674 559.868 405.915 L 559.868 405.915 L 559.94 430.278 L 559.94 430.278 Q 559.947 432.461 558.973 433.441 L 558.973 433.441 L 558.973 433.441 Q 557.999 434.421 555.815 434.427 L 555.815 434.427 L 538.002 434.48 L 538.002 434.48 Q 535.819 434.486 534.839 433.512 L 534.839 433.512 L 534.839 433.512 Q 533.859 432.538 533.853 430.355 L 533.853 430.355 L 533.801 412.772 L 533.801 412.772 Q 533.794 410.243 532.813 409.04 L 532.813 409.04 L 532.813 409.04 Q 531.833 407.836 529.42 407.843 L 529.42 407.843 L 513.33 407.89 L 513.397 430.415 L 513.397 430.415 Q 513.403 432.598 512.429 433.578 L 512.429 433.578 L 512.429 433.578 Q 511.455 434.558 509.272 434.564 Z  M 130.07 332.25 L 130.07 332.25 L 85.94 332.38 L 85.94 332.38 Q 83.757 332.386 82.777 331.412 L 82.777 331.412 L 82.777 331.412 Q 81.797 330.438 81.791 328.255 L 81.791 328.255 L 81.572 253.786 L 81.572 253.786 Q 81.565 251.602 82.539 250.622 L 82.539 250.622 L 82.539 250.622 Q 83.513 249.643 85.697 249.636 L 85.697 249.636 L 122.357 249.528 L 122.357 249.528 Q 133.619 249.495 139.033 253.789 L 139.033 253.789 L 139.033 253.789 Q 144.447 258.082 144.474 267.046 L 144.474 267.046 L 144.49 272.563 L 144.49 272.563 Q 144.504 277.389 142.847 280.44 L 142.847 280.44 L 142.847 280.44 Q 141.189 283.49 137.746 284.994 L 137.746 284.994 L 137.746 284.994 Q 145.103 285.662 148.678 290.019 L 148.678 290.019 L 148.678 290.019 Q 152.254 294.375 152.279 302.764 L 152.279 302.764 L 152.31 313.337 L 152.31 313.337 Q 152.338 322.991 146.893 327.604 L 146.893 327.604 L 146.893 327.604 Q 141.448 332.216 130.07 332.25 Z  M 117.243 269.08 L 107.474 269.109 L 107.511 281.521 L 117.279 281.492 L 117.279 281.492 Q 119.463 281.485 120.551 280.333 L 120.551 280.333 L 120.551 280.333 Q 121.64 279.18 121.633 276.882 L 121.633 276.882 L 121.623 273.664 L 121.623 273.664 Q 121.617 271.366 120.521 270.22 L 120.521 270.22 L 120.521 270.22 Q 119.426 269.074 117.243 269.08 L 117.243 269.08 Z  M 122.503 299.174 L 107.563 299.218 L 107.603 312.779 L 122.543 312.735 L 122.543 312.735 Q 124.726 312.729 125.815 311.576 L 125.815 311.576 L 125.815 311.576 Q 126.903 310.424 126.896 308.126 L 126.896 308.126 L 126.883 303.644 L 126.883 303.644 Q 126.876 301.345 125.781 300.257 L 125.781 300.257 L 125.781 300.257 Q 124.686 299.168 122.503 299.174 L 122.503 299.174 Z  M 235.044 271.032 L 235.16 310.22 L 235.16 310.22 Q 235.175 315.507 233.637 319.821 L 233.637 319.821 L 233.637 319.821 Q 232.098 324.135 228.142 327.192 L 228.142 327.192 L 228.142 327.192 Q 224.186 330.249 217.238 331.993 L 217.238 331.993 L 217.238 331.993 Q 210.291 333.738 199.603 333.769 L 199.603 333.769 L 199.603 333.769 Q 188.915 333.801 181.9 332.097 L 181.9 332.097 L 181.9 332.097 Q 174.885 330.394 170.911 327.36 L 170.911 327.36 L 170.911 327.36 Q 166.937 324.327 165.373 320.022 L 165.373 320.022 L 165.373 320.022 Q 163.809 315.717 163.793 310.43 L 163.793 310.43 L 163.678 271.242 L 163.678 271.242 Q 163.662 265.956 165.201 261.641 L 165.201 261.641 L 165.201 261.641 Q 166.74 257.327 170.696 254.213 L 170.696 254.213 L 170.696 254.213 Q 174.651 251.098 181.656 249.354 L 181.656 249.354 L 181.656 249.354 Q 188.662 247.609 199.349 247.578 L 199.349 247.578 L 199.349 247.578 Q 210.037 247.546 216.995 249.25 L 216.995 249.25 L 216.995 249.25 Q 223.953 250.953 227.927 254.044 L 227.927 254.044 L 227.927 254.044 Q 231.901 257.136 233.465 261.441 L 233.465 261.441 L 233.465 261.441 Q 235.029 265.746 235.044 271.032 L 235.044 271.032 Z  M 189.777 275.302 L 189.868 306.216 L 189.868 306.216 Q 189.875 308.515 191.604 310.061 L 191.604 310.061 L 191.604 310.061 Q 193.332 311.607 199.538 311.589 L 199.538 311.589 L 199.538 311.589 Q 205.744 311.571 207.463 310.014 L 207.463 310.014 L 207.463 310.014 Q 209.182 308.458 209.175 306.159 L 209.175 306.159 L 209.084 275.246 L 209.084 275.246 Q 209.078 273.062 207.349 271.516 L 207.349 271.516 L 207.349 271.516 Q 205.621 269.969 199.415 269.988 L 199.415 269.988 L 199.415 269.988 Q 193.209 270.006 191.49 271.562 L 191.49 271.562 L 191.49 271.562 Q 189.771 273.119 189.777 275.302 L 189.777 275.302 Z  M 319.742 270.783 L 319.857 309.971 L 319.857 309.971 Q 319.873 315.257 318.334 319.571 L 318.334 319.571 L 318.334 319.571 Q 316.795 323.886 312.839 326.943 L 312.839 326.943 L 312.839 326.943 Q 308.884 330 301.936 331.744 L 301.936 331.744 L 301.936 331.744 Q 294.988 333.488 284.3 333.52 L 284.3 333.52 L 284.3 333.52 Q 273.613 333.551 266.597 331.848 L 266.597 331.848 L 266.597 331.848 Q 259.582 330.145 255.608 327.111 L 255.608 327.111 L 255.608 327.111 Q 251.634 324.077 250.07 319.772 L 250.07 319.772 L 250.07 319.772 Q 248.506 315.467 248.491 310.181 L 248.491 310.181 L 248.375 270.993 L 248.375 270.993 Q 248.36 265.706 249.899 261.392 L 249.899 261.392 L 249.899 261.392 Q 251.437 257.078 255.393 253.963 L 255.393 253.963 L 255.393 253.963 Q 259.349 250.849 266.354 249.104 L 266.354 249.104 L 266.354 249.104 Q 273.359 247.36 284.047 247.329 L 284.047 247.329 L 284.047 247.329 Q 294.734 247.297 301.692 249 L 301.692 249 L 301.692 249 Q 308.65 250.704 312.624 253.795 L 312.624 253.795 L 312.624 253.795 Q 316.598 256.886 318.162 261.191 L 318.162 261.191 L 318.162 261.191 Q 319.726 265.496 319.742 270.783 L 319.742 270.783 Z  M 274.475 275.053 L 274.566 305.967 L 274.566 305.967 Q 274.573 308.265 276.301 309.812 L 276.301 309.812 L 276.301 309.812 Q 278.029 311.358 284.235 311.34 L 284.235 311.34 L 284.235 311.34 Q 290.441 311.322 292.16 309.765 L 292.16 309.765 L 292.16 309.765 Q 293.879 308.209 293.873 305.91 L 293.873 305.91 L 293.782 274.996 L 293.782 274.996 Q 293.775 272.813 292.047 271.266 L 292.047 271.266 L 292.047 271.266 Q 290.318 269.72 284.113 269.738 L 284.113 269.738 L 284.113 269.738 Q 277.907 269.757 276.188 271.313 L 276.188 271.313 L 276.188 271.313 Q 274.468 272.87 274.475 275.053 L 274.475 275.053 Z  M 356.466 331.584 L 356.466 331.584 L 338.653 331.636 L 338.653 331.636 Q 336.47 331.642 335.49 330.669 L 335.49 330.669 L 335.49 330.669 Q 334.51 329.695 334.504 327.511 L 334.504 327.511 L 334.285 253.042 L 334.285 253.042 Q 334.278 250.858 335.252 249.878 L 335.252 249.878 L 335.252 249.878 Q 336.226 248.899 338.41 248.892 L 338.41 248.892 L 356.223 248.84 L 356.223 248.84 Q 358.406 248.834 359.386 249.807 L 359.386 249.807 L 359.386 249.807 Q 360.366 250.781 360.372 252.965 L 360.372 252.965 L 360.45 279.397 L 365.047 279.383 L 376.805 252.572 L 376.805 252.572 Q 377.603 250.501 378.98 249.635 L 378.98 249.635 L 378.98 249.635 Q 380.356 248.769 382.54 248.762 L 382.54 248.762 L 400.238 248.71 L 400.238 248.71 Q 402.191 248.705 402.884 249.679 L 402.884 249.679 L 402.884 249.679 Q 403.576 250.654 402.777 252.495 L 402.777 252.495 L 391.134 279.307 L 391.134 279.307 Q 397.57 279.632 401.433 283.816 L 401.433 283.816 L 401.433 283.816 Q 405.295 287.999 405.315 294.894 L 405.315 294.894 L 405.411 327.302 L 405.411 327.302 Q 405.417 329.486 404.443 330.466 L 404.443 330.466 L 404.443 330.466 Q 403.469 331.445 401.286 331.452 L 401.286 331.452 L 383.588 331.504 L 383.588 331.504 Q 381.404 331.51 380.425 330.536 L 380.425 330.536 L 380.425 330.536 Q 379.445 329.562 379.438 327.379 L 379.438 327.379 L 379.372 304.969 L 379.372 304.969 Q 379.367 303.13 378.445 302.099 L 378.445 302.099 L 378.445 302.099 Q 377.522 301.067 375.683 301.072 L 375.683 301.072 L 360.514 301.117 L 360.591 327.434 L 360.591 327.434 Q 360.598 329.618 359.624 330.597 L 359.624 330.597 L 359.624 330.597 Q 358.65 331.577 356.466 331.584 Z  M 136.546 228.8 L 136.546 228.8 L 108.505 228.883 L 108.505 228.883 Q 94.14 228.925 87.17 223.2 L 87.17 223.2 L 87.17 223.2 Q 80.201 217.474 80.166 205.522 L 80.166 205.522 L 80.06 169.781 L 80.06 169.781 Q 80.025 157.83 86.961 152.006 L 86.961 152.006 L 86.961 152.006 Q 93.897 146.182 108.262 146.139 L 108.262 146.139 L 136.303 146.057 L 136.303 146.057 Q 138.486 146.05 139.466 147.024 L 139.466 147.024 L 139.466 147.024 Q 140.446 147.998 140.452 150.182 L 140.452 150.182 L 140.493 164.087 L 140.493 164.087 Q 140.499 166.271 139.525 167.25 L 139.525 167.25 L 139.525 167.25 Q 138.551 168.23 136.368 168.237 L 136.368 168.237 L 113.269 168.305 L 113.269 168.305 Q 109.706 168.315 107.986 169.757 L 107.986 169.757 L 107.986 169.757 Q 106.267 171.198 106.275 174.071 L 106.275 174.071 L 106.356 201.423 L 106.356 201.423 Q 106.364 204.296 108.092 205.612 L 108.092 205.612 L 108.092 205.612 Q 109.82 206.929 113.382 206.918 L 113.382 206.918 L 136.482 206.85 L 136.482 206.85 Q 138.665 206.844 139.645 207.818 L 139.645 207.818 L 139.645 207.818 Q 140.625 208.792 140.631 210.975 L 140.631 210.975 L 140.671 224.651 L 140.671 224.651 Q 140.678 226.835 139.704 227.814 L 139.704 227.814 L 139.704 227.814 Q 138.73 228.794 136.546 228.8 Z  M 223.593 167.635 L 223.708 206.823 L 223.708 206.823 Q 223.723 212.11 222.185 216.424 L 222.185 216.424 L 222.185 216.424 Q 220.646 220.738 216.69 223.795 L 216.69 223.795 L 216.69 223.795 Q 212.734 226.852 205.787 228.597 L 205.787 228.597 L 205.787 228.597 Q 198.839 230.341 188.151 230.372 L 188.151 230.372 L 188.151 230.372 Q 177.463 230.404 170.448 228.701 L 170.448 228.701 L 170.448 228.701 Q 163.433 226.997 159.459 223.964 L 159.459 223.964 L 159.459 223.964 Q 155.485 220.93 153.921 216.625 L 153.921 216.625 L 153.921 216.625 Q 152.357 212.32 152.342 207.033 L 152.342 207.033 L 152.226 167.845 L 152.226 167.845 Q 152.211 162.559 153.749 158.245 L 153.749 158.245 L 153.749 158.245 Q 155.288 153.931 159.244 150.816 L 159.244 150.816 L 159.244 150.816 Q 163.199 147.701 170.205 145.957 L 170.205 145.957 L 170.205 145.957 Q 177.21 144.212 187.898 144.181 L 187.898 144.181 L 187.898 144.181 Q 198.585 144.15 205.543 145.853 L 205.543 145.853 L 205.543 145.853 Q 212.501 147.556 216.475 150.648 L 216.475 150.648 L 216.475 150.648 Q 220.449 153.739 222.013 158.044 L 222.013 158.044 L 222.013 158.044 Q 223.577 162.349 223.593 167.635 L 223.593 167.635 Z  M 178.326 171.906 L 178.417 202.82 L 178.417 202.82 Q 178.423 205.118 180.152 206.664 L 180.152 206.664 L 180.152 206.664 Q 181.88 208.211 188.086 208.192 L 188.086 208.192 L 188.086 208.192 Q 194.292 208.174 196.011 206.618 L 196.011 206.618 L 196.011 206.618 Q 197.73 205.061 197.723 202.763 L 197.723 202.763 L 197.632 171.849 L 197.632 171.849 Q 197.626 169.665 195.898 168.119 L 195.898 168.119 L 195.898 168.119 Q 194.169 166.573 187.963 166.591 L 187.963 166.591 L 187.963 166.591 Q 181.758 166.609 180.038 168.166 L 180.038 168.166 L 180.038 168.166 Q 178.319 169.722 178.326 171.906 L 178.326 171.906 Z  M 259.628 228.438 L 259.628 228.438 L 242.504 228.489 L 242.504 228.489 Q 240.321 228.495 239.341 227.521 L 239.341 227.521 L 239.341 227.521 Q 238.361 226.547 238.355 224.364 L 238.355 224.364 L 238.136 149.894 L 238.136 149.894 Q 238.129 147.711 239.103 146.731 L 239.103 146.731 L 239.103 146.731 Q 240.077 145.751 242.261 145.745 L 242.261 145.745 L 260.763 145.69 L 260.763 145.69 Q 262.602 145.685 263.811 146.486 L 263.811 146.486 L 263.811 146.486 Q 265.02 147.287 266.059 149.122 L 266.059 149.122 L 276.458 167.824 L 276.458 167.824 Q 277.035 168.857 277.439 169.315 L 277.439 169.315 L 277.439 169.315 Q 277.842 169.774 278.532 169.772 L 278.532 169.772 L 279.566 169.769 L 279.566 169.769 Q 280.256 169.767 280.657 169.306 L 280.657 169.306 L 280.657 169.306 Q 281.058 168.845 281.629 167.809 L 281.629 167.809 L 291.802 149.047 L 291.802 149.047 Q 292.831 147.205 294.035 146.397 L 294.035 146.397 L 294.035 146.397 Q 295.239 145.589 297.078 145.583 L 297.078 145.583 L 315.696 145.529 L 315.696 145.529 Q 317.879 145.522 318.859 146.496 L 318.859 146.496 L 318.859 146.496 Q 319.838 147.47 319.845 149.654 L 319.845 149.654 L 320.064 224.123 L 320.064 224.123 Q 320.07 226.307 319.097 227.286 L 319.097 227.286 L 319.097 227.286 Q 318.123 228.266 315.939 228.272 L 315.939 228.272 L 298.241 228.325 L 298.241 228.325 Q 296.058 228.331 295.078 227.357 L 295.078 227.357 L 295.078 227.357 Q 294.098 226.383 294.092 224.199 L 294.092 224.199 L 293.973 183.747 L 287.229 196.293 L 287.229 196.293 Q 286.201 198.25 284.767 199.116 L 284.767 199.116 L 284.767 199.116 Q 283.333 199.982 281.149 199.989 L 281.149 199.989 L 276.552 200.002 L 276.552 200.002 Q 274.369 200.009 272.93 199.151 L 272.93 199.151 L 272.93 199.151 Q 271.491 198.293 270.451 196.343 L 270.451 196.343 L 263.633 183.836 L 263.753 224.289 L 263.753 224.289 Q 263.759 226.472 262.785 227.452 L 262.785 227.452 L 262.785 227.452 Q 261.811 228.432 259.628 228.438 Z  M 387.191 228.063 L 338.234 228.207 L 338.234 228.207 Q 336.05 228.213 335.071 227.239 L 335.071 227.239 L 335.071 227.239 Q 334.091 226.265 334.085 224.082 L 334.085 224.082 L 334.044 210.406 L 334.044 210.406 Q 334.038 208.223 335.012 207.243 L 335.012 207.243 L 335.012 207.243 Q 335.986 206.263 338.169 206.257 L 338.169 206.257 L 349.547 206.223 L 349.433 167.61 L 338.056 167.643 L 338.056 167.643 Q 335.872 167.649 334.892 166.676 L 334.892 166.676 L 334.892 166.676 Q 333.913 165.702 333.906 163.518 L 333.906 163.518 L 333.865 149.612 L 333.865 149.612 Q 333.859 147.429 334.833 146.449 L 334.833 146.449 L 334.833 146.449 Q 335.807 145.47 337.99 145.463 L 337.99 145.463 L 386.947 145.319 L 386.947 145.319 Q 389.131 145.313 390.11 146.287 L 390.11 146.287 L 390.11 146.287 Q 391.09 147.26 391.096 149.444 L 391.096 149.444 L 391.137 163.35 L 391.137 163.35 Q 391.144 165.533 390.17 166.513 L 390.17 166.513 L 390.17 166.513 Q 389.196 167.492 387.012 167.499 L 387.012 167.499 L 375.865 167.532 L 375.979 206.145 L 387.126 206.113 L 387.126 206.113 Q 389.31 206.106 390.289 207.08 L 390.289 207.08 L 390.289 207.08 Q 391.269 208.054 391.275 210.238 L 391.275 210.238 L 391.316 223.913 L 391.316 223.913 Q 391.322 226.097 390.348 227.077 L 390.348 227.077 L 390.348 227.077 Q 389.374 228.056 387.191 228.063 L 387.191 228.063 Z  M 460.511 227.847 L 460.511 227.847 L 432.47 227.929 L 432.47 227.929 Q 418.105 227.972 411.135 222.246 L 411.135 222.246 L 411.135 222.246 Q 404.165 216.52 404.13 204.569 L 404.13 204.569 L 404.025 168.828 L 404.025 168.828 Q 403.99 156.876 410.925 151.052 L 410.925 151.052 L 410.925 151.052 Q 417.861 145.228 432.226 145.186 L 432.226 145.186 L 460.267 145.103 L 460.267 145.103 Q 462.451 145.097 463.43 146.071 L 463.43 146.071 L 463.43 146.071 Q 464.41 147.045 464.417 149.228 L 464.417 149.228 L 464.457 163.134 L 464.457 163.134 Q 464.464 165.317 463.49 166.297 L 463.49 166.297 L 463.49 166.297 Q 462.516 167.277 460.332 167.283 L 460.332 167.283 L 437.233 167.351 L 437.233 167.351 Q 433.671 167.362 431.951 168.803 L 431.951 168.803 L 431.951 168.803 Q 430.231 170.245 430.24 173.118 L 430.24 173.118 L 430.32 200.469 L 430.32 200.469 Q 430.329 203.342 432.056 204.659 L 432.056 204.659 L 432.056 204.659 Q 433.784 205.975 437.347 205.965 L 437.347 205.965 L 460.446 205.897 L 460.446 205.897 Q 462.63 205.89 463.609 206.864 L 463.609 206.864 L 463.609 206.864 Q 464.589 207.838 464.595 210.022 L 464.595 210.022 L 464.636 223.697 L 464.636 223.697 Q 464.642 225.881 463.668 226.861 L 463.668 226.861 L 463.668 226.861 Q 462.694 227.84 460.511 227.847 Z " fill-rule="evenodd" fill="rgb(255,255,255)"/></g></g></svg>